<svg xmlns="http://www.w3.org/2000/svg" viewBox="0 0 64 64">
  <rect width="64" height="64" rx="14" fill="#14110f"/>
  <path transform="translate(4.536 60.541) scale(0.07972 -0.07972)" d="M188 268Q194 298 194 361Q194 380 191 380Q184 380 130.5 327.5Q77 275 77 268Q77 260 139 246Q169 240 172 240Q178 240 181.5 243.5Q185 247 186.0 251.5Q187 256 188 268ZM444 619Q473 639 485 639Q491 639 491.0 634.0Q491 629 484 629Q478 629 440.0 600.5Q402 572 380 552Q367 539 301.0 482.0Q235 425 229 419L211 404L210 319V292Q210 235 215 232Q217 231 220.0 233.5Q223 236 224 241L229 253L231 240Q233 231 242.5 226.5Q252 222 291 213Q457 177 489 163Q498 158 547 146Q574 138 577 142Q580 147 587 147Q600 147 616.5 135.0Q633 123 633 113Q633 112 631 108Q625 101 609 101Q587 101 551 113Q536 118 518.0 123.5Q500 129 483.0 134.0Q466 139 463 140Q379 161 376 163Q367 167 326.0 175.5Q285 184 275 187Q253 195 244 195Q234 195 230.0 186.0Q226 177 222 152Q210 77 188 77Q178 77 178 98Q178 114 179 126Q181 173 183 191L186 207L135 217Q90 225 73.0 233.5Q56 242 56 255Q56 271 71.0 290.5Q86 310 134 356L196 416L198 446Q212 613 218 613Q220 613 220 594Q220 566 214 482Q213 464 213 445Q213 435 215.0 435.0Q217 435 220 438Q243 457 268 479Q382 577 444 619Z" fill="#d98a4a"/>
</svg>
